# xmcd
#
# Track frame offsets: 
#        150
#        14604
#        24640
#        34118
#        48876
#        62521
#        80550
#        97838
#        114521
#        132158
#        158021
#        178841
#        197036
#        212013
#        228356
#        245181
#        262617
#        280005
#        297674
#        315499
#
# Disc length: 4459 seconds
#
# Revision: 0
# Processed by: cddbd v1.5.2PL0 Copyright (c) Steve Scherf et al.
# Submitted via: ExactAudioCopy v0.99pb5
#
DISCID=12116914
DTITLE=Status Quo  - Pictures 40 Years Of Hits - Disc 1
DYEAR=1900
DGENRE=
TTITLE0=Pictures Of Matchstick Men
TTITLE1=Ice In The Sun
TTITLE2=Down The Dustpipe
TTITLE3=In My Chair
TTITLE4=Paper Plane
TTITLE5=Mean Girl
TTITLE6=Caroline
TTITLE7=Break The Rules
TTITLE8=Down Down
TTITLE9=Roll Over Lay Down (Live)
TTITLE10=Rain
TTITLE11=Mystery Song
TTITLE12=Wild Side Of Life
TTITLE13=Rockin' All Over The World
TTITLE14=Again And Again
TTITLE15=Whatever You Want
TTITLE16=Living On An Island
TTITLE17=What You're Proposing
TTITLE18=Lies
TTITLE19=Don't Drive My Car
EXTD=
EXTT0=
EXTT1=
EXTT2=
EXTT3=
EXTT4=
EXTT5=
EXTT6=
EXTT7=
EXTT8=
EXTT9=
EXTT10=
EXTT11=
EXTT12=
EXTT13=
EXTT14=
EXTT15=
EXTT16=
EXTT17=
EXTT18=
EXTT19=
PLAYORDER=
